<svg width="612" height="459" viewBox="0 0 612 459" fill="none" xmlns="http://www.w3.org/2000/svg">
<rect width="612" height="459" fill="#F6F7FB"/>
<path d="M260.5 185L235 226H286L260.5 185Z" fill="#E4E4E4"/>
<rect x="291" y="185" width="40" height="41" fill="#D2D2D2"/>
<circle cx="356.5" cy="205.5" r="20.5" fill="#E4E4E4"/>
<path d="M255.673 266H250.839L241.429 250.563V266H236.595V242.539H241.429L250.855 258.008V242.539H255.673V266ZM258.863 257.122C258.863 255.392 259.196 253.851 259.862 252.497C260.528 251.144 261.484 250.096 262.73 249.355C263.987 248.614 265.443 248.243 267.097 248.243C269.45 248.243 271.367 248.963 272.85 250.402C274.343 251.842 275.175 253.797 275.347 256.268L275.379 257.46C275.379 260.135 274.633 262.283 273.14 263.905C271.646 265.517 269.643 266.322 267.129 266.322C264.616 266.322 262.607 265.517 261.103 263.905C259.61 262.294 258.863 260.103 258.863 257.331V257.122ZM263.52 257.46C263.52 259.114 263.832 260.382 264.455 261.263C265.078 262.133 265.969 262.568 267.129 262.568C268.257 262.568 269.138 262.138 269.772 261.279C270.406 260.409 270.723 259.023 270.723 257.122C270.723 255.5 270.406 254.243 269.772 253.351C269.138 252.459 268.247 252.014 267.097 252.014C265.958 252.014 265.078 252.459 264.455 253.351C263.832 254.232 263.52 255.602 263.52 257.46ZM291.912 266H287.078V242.539H291.912V266ZM300.468 248.565L300.613 250.515C301.848 249 303.519 248.243 305.624 248.243C307.869 248.243 309.411 249.129 310.249 250.902C311.473 249.129 313.219 248.243 315.485 248.243C317.376 248.243 318.783 248.796 319.707 249.903C320.631 250.999 321.093 252.653 321.093 254.866V266H316.42V254.882C316.42 253.894 316.227 253.174 315.84 252.723C315.453 252.261 314.771 252.03 313.793 252.03C312.397 252.03 311.43 252.696 310.893 254.028L310.909 266H306.252V254.898C306.252 253.888 306.054 253.158 305.656 252.707C305.259 252.255 304.582 252.03 303.626 252.03C302.305 252.03 301.349 252.578 300.758 253.673V266H296.101V248.565H300.468ZM334.789 266C334.574 265.581 334.418 265.06 334.322 264.437C333.194 265.694 331.728 266.322 329.923 266.322C328.215 266.322 326.797 265.828 325.669 264.84C324.552 263.852 323.993 262.605 323.993 261.102C323.993 259.254 324.675 257.836 326.04 256.848C327.415 255.859 329.396 255.36 331.985 255.349H334.128V254.35C334.128 253.544 333.919 252.9 333.5 252.417C333.092 251.933 332.442 251.691 331.55 251.691C330.766 251.691 330.148 251.879 329.697 252.255C329.257 252.631 329.037 253.147 329.037 253.802H324.38C324.38 252.792 324.691 251.858 325.314 250.999C325.938 250.139 326.818 249.468 327.957 248.984C329.096 248.49 330.374 248.243 331.792 248.243C333.94 248.243 335.643 248.786 336.9 249.871C338.167 250.945 338.801 252.459 338.801 254.415V261.972C338.812 263.626 339.043 264.877 339.494 265.726V266H334.789ZM330.938 262.761C331.625 262.761 332.259 262.611 332.839 262.31C333.419 261.999 333.849 261.585 334.128 261.069V258.072H332.388C330.057 258.072 328.816 258.878 328.666 260.489L328.65 260.763C328.65 261.343 328.854 261.821 329.262 262.197C329.67 262.573 330.229 262.761 330.938 262.761ZM341.702 257.154C341.702 254.479 342.335 252.325 343.603 250.692C344.881 249.06 346.6 248.243 348.759 248.243C350.671 248.243 352.159 248.898 353.223 250.209L353.416 248.565H357.638V265.42C357.638 266.945 357.289 268.272 356.59 269.4C355.903 270.528 354.931 271.387 353.674 271.978C352.417 272.569 350.945 272.864 349.259 272.864C347.98 272.864 346.734 272.606 345.521 272.091C344.307 271.586 343.388 270.931 342.765 270.125L344.828 267.289C345.988 268.589 347.395 269.239 349.049 269.239C350.285 269.239 351.246 268.906 351.934 268.24C352.621 267.584 352.965 266.65 352.965 265.436V264.501C351.891 265.715 350.478 266.322 348.727 266.322C346.632 266.322 344.935 265.506 343.635 263.873C342.346 262.229 341.702 260.054 341.702 257.347V257.154ZM346.358 257.492C346.358 259.071 346.675 260.312 347.309 261.214C347.943 262.106 348.813 262.552 349.919 262.552C351.337 262.552 352.353 262.02 352.965 260.957V253.625C352.342 252.562 351.337 252.03 349.952 252.03C348.834 252.03 347.954 252.486 347.309 253.399C346.675 254.312 346.358 255.677 346.358 257.492ZM369.255 266.322C366.699 266.322 364.615 265.538 363.003 263.97C361.403 262.401 360.603 260.312 360.603 257.702V257.25C360.603 255.5 360.941 253.937 361.618 252.562C362.294 251.176 363.25 250.112 364.486 249.371C365.732 248.619 367.15 248.243 368.74 248.243C371.125 248.243 372.999 248.995 374.363 250.499C375.738 252.003 376.426 254.135 376.426 256.896V258.797H365.324C365.474 259.936 365.925 260.849 366.677 261.537C367.44 262.224 368.401 262.568 369.562 262.568C371.355 262.568 372.757 261.918 373.767 260.618L376.055 263.18C375.357 264.168 374.412 264.942 373.219 265.5C372.027 266.048 370.706 266.322 369.255 266.322ZM368.724 252.014C367.8 252.014 367.048 252.325 366.468 252.948C365.898 253.571 365.533 254.463 365.372 255.623H371.85V255.252C371.828 254.221 371.549 253.426 371.012 252.868C370.475 252.298 369.712 252.014 368.724 252.014Z" fill="#E4E4E4"/>
</svg>
