<svg width="16" height="20" viewBox="0 0 16 20" fill="none" xmlns="http://www.w3.org/2000/svg">
<path fill-rule="evenodd" clip-rule="evenodd" d="M8 19.7777C8 19.7777 16 14.4444 16 8.22217C16 6.10044 15.1571 4.06561 13.6569 2.56531C12.1566 1.06502 10.1217 0.222168 8 0.222168C5.87827 0.222168 3.84344 1.06502 2.34315 2.56531C0.842855 4.06561 0 6.10044 0 8.22217C0 14.4444 8 19.7777 8 19.7777ZM10.6676 8.22236C10.6676 9.69512 9.47364 10.889 8.00088 10.889C6.52812 10.889 5.33421 9.69512 5.33421 8.22236C5.33421 6.7496 6.52812 5.55569 8.00088 5.55569C9.47364 5.55569 10.6676 6.7496 10.6676 8.22236Z" fill="white"/>
</svg>
