<svg width="54" height="54" viewBox="0 0 54 54" fill="none" xmlns="http://www.w3.org/2000/svg">
<path fill-rule="evenodd" clip-rule="evenodd" d="M0 27.25C0 12.4775 11.9752 0.5 26.75 0.5C41.5225 0.5 53.5 12.4775 53.5 27.25C53.5 42.0248 41.5225 54 26.75 54C11.9752 54 0 42.0248 0 27.25ZM38.8959 27.9441C39.2764 28.6382 40.0881 28.938 40.9367 28.7097C41.617 28.5275 42.0621 27.9303 42.0413 27.1531C41.9122 21.9945 39.7837 17.8644 35.6305 14.802C33.592 13.2962 31.2837 12.4176 28.7724 12.0901C28.385 12.0417 28.2466 11.8987 28.2697 11.5113C28.295 11.0916 28.2904 10.6673 28.2489 10.2499C28.1682 9.43819 27.534 8.87782 26.7477 8.87782C25.9636 8.87782 25.3295 9.44511 25.2488 10.2522C25.2096 10.6512 25.198 11.057 25.2303 11.456C25.2649 11.8941 25.0989 12.0371 24.6677 12.0994C20.669 12.6736 17.3737 14.5276 14.8324 17.6684C12.6002 20.4264 11.5002 23.6088 11.4587 27.1555C11.4495 28.0871 12.0444 28.7097 12.9668 28.7651C13.8431 28.8181 14.3435 28.4814 14.7725 27.5636C15.3305 26.376 16.2622 25.7234 17.5766 25.7303C18.8657 25.7372 19.8088 26.3714 20.3231 27.5521C20.6782 28.3661 21.2224 28.7743 22.1264 28.7812C23.0511 28.7881 23.6069 28.3753 23.9966 27.5521C24.1617 27.2028 24.4131 26.8929 24.6644 26.5833C24.7781 26.4431 24.8918 26.303 24.9974 26.1592C25.0262 26.1754 25.0545 26.191 25.0827 26.2065C25.111 26.2221 25.1392 26.2376 25.1681 26.2538C25.1743 26.2913 25.182 26.3289 25.1897 26.3667C25.2077 26.4544 25.2257 26.5426 25.2257 26.6297C25.2261 27.3785 25.2266 28.1274 25.2271 28.8764C25.23 32.8716 25.2329 36.8679 25.2096 40.8625C25.2073 41.2522 25.0458 41.7019 24.8152 42.0178C24.4278 42.5459 23.8213 42.652 23.2079 42.4491C22.5369 42.2254 22.2256 41.7134 22.161 41.017C22.0687 40.0347 21.3931 39.4351 20.496 39.5135C19.629 39.5873 19.0824 40.2791 19.1239 41.243C19.2577 44.2916 22.2832 46.3555 25.1681 45.3685C27.1236 44.6998 28.2858 43.0094 28.2904 40.768C28.2969 37.5411 28.2954 34.313 28.294 31.0854C28.2934 29.7023 28.2927 28.3192 28.2927 26.9364V26.1961C29.0053 26.5697 29.3443 27.1139 29.598 27.7181C29.8101 28.2301 30.1629 28.6129 30.7025 28.7097C31.7472 28.8965 32.6581 28.7904 33.1815 27.5383C33.6566 26.3991 34.579 25.7834 35.8196 25.7349C37.0326 25.6865 37.9527 26.2307 38.573 27.2731C38.6412 27.3871 38.6947 27.5098 38.7483 27.6326C38.7944 27.7382 38.8404 27.8439 38.8959 27.9441ZM15.3718 23.0461C15.4179 19.9629 20.7194 15.6599 25.2208 15.1134C31.7123 14.3247 36.6726 18.5055 38.213 23.0646C35.5795 22.1929 33.2989 22.7394 31.3364 24.7203C30.0796 23.4059 28.5761 22.661 26.7589 22.661C24.9418 22.661 23.4313 23.3966 22.1676 24.7203C20.2213 22.774 17.9707 22.1813 15.3718 23.0461Z" fill="#FFB72C"/>
</svg>
