<svg width="187" height="196" viewBox="0 0 187 196" fill="none" xmlns="http://www.w3.org/2000/svg">
<rect width="187" height="196" fill="#F6F7FB"/>
<path d="M71.4837 76.0583L60.8485 93.0747H82.1189L71.4837 76.0583Z" fill="#E4E4E4"/>
<rect x="87.119" y="76.0583" width="17.0163" height="17.0163" fill="#D2D2D2"/>
<circle cx="117.643" cy="84.5665" r="8.50816" fill="#E4E4E4"/>
<path d="M69.9422 116.075H67.7449L63.4676 109.058V116.075H61.2703V105.411H63.4676L67.7523 112.442V105.411H69.9422V116.075ZM71.3924 112.039C71.3924 111.253 71.5438 110.552 71.8465 109.937C72.1492 109.322 72.5838 108.846 73.1502 108.509C73.7215 108.172 74.3831 108.003 75.1351 108.003C76.2044 108.003 77.076 108.331 77.7498 108.985C78.4285 109.639 78.8069 110.528 78.8851 111.651L78.8997 112.193C78.8997 113.409 78.5604 114.385 77.8817 115.123C77.2029 115.855 76.2923 116.221 75.1497 116.221C74.0071 116.221 73.0941 115.855 72.4105 115.123C71.7318 114.39 71.3924 113.394 71.3924 112.134V112.039ZM73.5091 112.193C73.5091 112.945 73.6507 113.521 73.9339 113.921C74.2171 114.317 74.6224 114.515 75.1497 114.515C75.6624 114.515 76.0628 114.319 76.3509 113.929C76.639 113.533 76.783 112.903 76.783 112.039C76.783 111.302 76.639 110.73 76.3509 110.325C76.0628 109.92 75.6575 109.717 75.1351 109.717C74.6175 109.717 74.2171 109.92 73.9339 110.325C73.6507 110.726 73.5091 111.348 73.5091 112.193ZM86.4144 116.075H84.2171V105.411H86.4144V116.075ZM90.3035 108.15L90.3694 109.036C90.931 108.348 91.6902 108.003 92.6473 108.003C93.6678 108.003 94.3685 108.406 94.7493 109.212C95.306 108.406 96.0994 108.003 97.1297 108.003C97.9891 108.003 98.6287 108.255 99.0486 108.758C99.4686 109.256 99.6785 110.008 99.6785 111.014V116.075H97.5545V111.021C97.5545 110.572 97.4666 110.245 97.2908 110.04C97.1151 109.83 96.805 109.725 96.3607 109.725C95.7259 109.725 95.2864 110.027 95.0423 110.633L95.0496 116.075H92.9329V111.028C92.9329 110.569 92.8426 110.237 92.6619 110.032C92.4813 109.827 92.1736 109.725 91.7391 109.725C91.1385 109.725 90.7039 109.974 90.4354 110.472V116.075H88.3187V108.15H90.3035ZM105.904 116.075C105.806 115.884 105.736 115.647 105.692 115.364C105.179 115.936 104.513 116.221 103.692 116.221C102.916 116.221 102.271 115.997 101.759 115.547C101.251 115.098 100.997 114.532 100.997 113.848C100.997 113.008 101.307 112.364 101.927 111.915C102.552 111.465 103.453 111.238 104.63 111.233H105.604V110.779C105.604 110.413 105.509 110.12 105.318 109.9C105.133 109.681 104.837 109.571 104.432 109.571C104.076 109.571 103.795 109.656 103.59 109.827C103.389 109.998 103.289 110.232 103.289 110.53H101.173C101.173 110.071 101.314 109.646 101.597 109.256C101.881 108.865 102.281 108.56 102.799 108.34C103.316 108.116 103.897 108.003 104.542 108.003C105.518 108.003 106.292 108.25 106.864 108.743C107.44 109.231 107.728 109.92 107.728 110.809V114.244C107.733 114.996 107.838 115.564 108.043 115.95V116.075H105.904ZM104.154 114.603C104.466 114.603 104.754 114.534 105.018 114.397C105.282 114.256 105.477 114.068 105.604 113.833V112.471H104.813C103.753 112.471 103.189 112.837 103.121 113.57L103.114 113.694C103.114 113.958 103.206 114.175 103.392 114.346C103.577 114.517 103.831 114.603 104.154 114.603ZM109.046 112.054C109.046 110.838 109.334 109.859 109.91 109.117C110.492 108.375 111.273 108.003 112.254 108.003C113.123 108.003 113.8 108.301 114.283 108.897L114.371 108.15H116.29V115.811C116.29 116.504 116.131 117.107 115.814 117.62C115.501 118.133 115.059 118.523 114.488 118.792C113.917 119.061 113.248 119.195 112.481 119.195C111.9 119.195 111.334 119.078 110.782 118.843C110.23 118.614 109.813 118.316 109.53 117.95L110.467 116.661C110.994 117.251 111.634 117.547 112.386 117.547C112.948 117.547 113.385 117.396 113.697 117.093C114.01 116.795 114.166 116.37 114.166 115.818V115.394C113.678 115.945 113.035 116.221 112.24 116.221C111.287 116.221 110.516 115.85 109.925 115.108C109.339 114.361 109.046 113.372 109.046 112.142V112.054ZM111.163 112.208C111.163 112.925 111.307 113.489 111.595 113.899C111.883 114.305 112.279 114.507 112.782 114.507C113.426 114.507 113.888 114.266 114.166 113.782V110.45C113.883 109.966 113.426 109.725 112.796 109.725C112.288 109.725 111.888 109.932 111.595 110.347C111.307 110.762 111.163 111.382 111.163 112.208ZM121.571 116.221C120.409 116.221 119.461 115.865 118.729 115.152C118.001 114.439 117.638 113.489 117.638 112.303V112.098C117.638 111.302 117.791 110.591 118.099 109.966C118.407 109.336 118.841 108.853 119.403 108.516C119.969 108.174 120.614 108.003 121.336 108.003C122.42 108.003 123.272 108.345 123.892 109.029C124.517 109.712 124.83 110.682 124.83 111.937V112.801H119.784C119.852 113.318 120.057 113.733 120.399 114.046C120.745 114.358 121.182 114.515 121.71 114.515C122.525 114.515 123.162 114.219 123.621 113.628L124.661 114.793C124.344 115.242 123.914 115.594 123.372 115.848C122.83 116.097 122.23 116.221 121.571 116.221ZM121.329 109.717C120.909 109.717 120.567 109.859 120.304 110.142C120.045 110.425 119.879 110.831 119.805 111.358H122.75V111.189C122.74 110.721 122.613 110.359 122.369 110.105C122.125 109.847 121.778 109.717 121.329 109.717Z" fill="#E4E4E4"/>
</svg>
