<svg width="125" height="72" viewBox="0 0 125 72" fill="none" xmlns="http://www.w3.org/2000/svg">
<path d="M50.9658 42.1929H45.5215V57H41.8594V42.1929H36.4883V39.2266H50.9658V42.1929ZM58.4365 57C58.2738 56.6826 58.1558 56.2879 58.0825 55.8159C57.228 56.7681 56.1172 57.2441 54.75 57.2441C53.4561 57.2441 52.3818 56.8698 51.5273 56.1211C50.681 55.3724 50.2578 54.4284 50.2578 53.2891C50.2578 51.8893 50.7746 50.8151 51.8081 50.0664C52.8498 49.3177 54.3512 48.9393 56.3125 48.9312H57.936V48.1743C57.936 47.564 57.7773 47.0757 57.46 46.7095C57.1507 46.3433 56.6584 46.1602 55.9829 46.1602C55.3888 46.1602 54.9209 46.3026 54.5791 46.5874C54.2454 46.8722 54.0786 47.2629 54.0786 47.7593H50.5508C50.5508 46.9943 50.7868 46.2863 51.2588 45.6353C51.7308 44.9842 52.3981 44.4756 53.2607 44.1094C54.1234 43.735 55.0918 43.5479 56.166 43.5479C57.7936 43.5479 59.0835 43.9588 60.0356 44.7808C60.9959 45.5946 61.4761 46.742 61.4761 48.2231V53.9482C61.4842 55.2015 61.6592 56.1496 62.001 56.7925V57H58.4365ZM55.519 54.5464C56.0399 54.5464 56.52 54.4325 56.9595 54.2046C57.3989 53.9686 57.7244 53.6553 57.936 53.2646V50.9941H56.6177C54.8517 50.9941 53.9118 51.6045 53.7979 52.8252L53.7856 53.0327C53.7856 53.4722 53.9403 53.8343 54.2495 54.1191C54.5588 54.404 54.9819 54.5464 55.519 54.5464ZM67.9092 57H64.3691V43.792H67.9092V57ZM64.1616 40.374C64.1616 39.8451 64.3366 39.4097 64.6865 39.0679C65.0446 38.7261 65.5288 38.5552 66.1392 38.5552C66.7414 38.5552 67.2215 38.7261 67.5796 39.0679C67.9377 39.4097 68.1167 39.8451 68.1167 40.374C68.1167 40.9111 67.9336 41.3506 67.5674 41.6924C67.2093 42.0342 66.7332 42.2051 66.1392 42.2051C65.5451 42.2051 65.0649 42.0342 64.6987 41.6924C64.3407 41.3506 64.1616 40.9111 64.1616 40.374ZM82.3135 52.2026L84.0469 43.792H87.4526L84.0835 57H81.1294L78.627 48.687L76.1245 57H73.1826L69.8135 43.792H73.2192L74.9404 52.1904L77.3574 43.792H79.9087L82.3135 52.2026ZM96.8643 57C96.7015 56.6826 96.5835 56.2879 96.5103 55.8159C95.6558 56.7681 94.5449 57.2441 93.1777 57.2441C91.8838 57.2441 90.8096 56.8698 89.9551 56.1211C89.1087 55.3724 88.6855 54.4284 88.6855 53.2891C88.6855 51.8893 89.2023 50.8151 90.2358 50.0664C91.2775 49.3177 92.779 48.9393 94.7402 48.9312H96.3638V48.1743C96.3638 47.564 96.2051 47.0757 95.8877 46.7095C95.5785 46.3433 95.0861 46.1602 94.4106 46.1602C93.8166 46.1602 93.3486 46.3026 93.0068 46.5874C92.6732 46.8722 92.5063 47.2629 92.5063 47.7593H88.9785C88.9785 46.9943 89.2145 46.2863 89.6865 45.6353C90.1585 44.9842 90.8258 44.4756 91.6885 44.1094C92.5511 43.735 93.5195 43.5479 94.5938 43.5479C96.2214 43.5479 97.5112 43.9588 98.4634 44.7808C99.4237 45.5946 99.9038 46.742 99.9038 48.2231V53.9482C99.9119 55.2015 100.087 56.1496 100.429 56.7925V57H96.8643ZM93.9468 54.5464C94.4676 54.5464 94.9478 54.4325 95.3872 54.2046C95.8267 53.9686 96.1522 53.6553 96.3638 53.2646V50.9941H95.0454C93.2795 50.9941 92.3395 51.6045 92.2256 52.8252L92.2134 53.0327C92.2134 53.4722 92.368 53.8343 92.6772 54.1191C92.9865 54.404 93.4097 54.5464 93.9468 54.5464ZM105.861 43.792L105.971 45.3179C106.915 44.1379 108.18 43.5479 109.767 43.5479C111.167 43.5479 112.208 43.9588 112.892 44.7808C113.576 45.6027 113.926 46.8315 113.942 48.4673V57H110.414V48.5527C110.414 47.804 110.251 47.2629 109.926 46.9292C109.6 46.5874 109.059 46.4165 108.302 46.4165C107.309 46.4165 106.565 46.8397 106.068 47.686V57H102.541V43.792H105.861ZM116.811 42.3516C116.811 41.4238 117.14 40.6304 117.799 39.9712C118.458 39.312 119.236 38.9824 120.131 38.9824C121.018 38.9824 121.783 39.312 122.426 39.9712C123.077 40.6222 123.402 41.4157 123.402 42.3516C123.402 43.2874 123.077 44.0768 122.426 44.7197C121.783 45.3545 121.018 45.6719 120.131 45.6719C119.252 45.6719 118.479 45.3545 117.812 44.7197C117.144 44.0768 116.811 43.2874 116.811 42.3516ZM120.131 43.8652C120.562 43.8652 120.916 43.7228 121.193 43.438C121.478 43.145 121.62 42.7829 121.62 42.3516C121.62 41.9284 121.478 41.5622 121.193 41.2529C120.916 40.9437 120.562 40.7891 120.131 40.7891C119.7 40.7891 119.337 40.9437 119.044 41.2529C118.751 41.5622 118.605 41.9284 118.605 42.3516C118.605 42.7747 118.751 43.1328 119.044 43.4258C119.346 43.7188 119.708 43.8652 120.131 43.8652Z" fill="#FF1D6C"/>
<path d="M15.0452 70.9236C14.8831 70.2287 14.6143 69.109 14.3626 67.9852C14.2154 67.3253 14.2176 66.6078 13.9424 66.0036C13.4774 64.9767 13.0295 63.8405 12.236 63.0796C11.3615 62.2403 10.1691 61.6238 9.00446 61.1722C6.12701 60.0566 4.66589 57.9389 3.83615 55.1779C3.26876 53.2911 2.47955 51.4641 1.72446 49.6351C1.58581 49.301 1.13147 49.0907 0.822186 48.8247C-0.370173 47.7978 -0.252857 45.0243 1.09095 44.0593C0.643013 43.6448 0.572623 43.3025 0.670742 42.5808C0.81792 41.5003 1.09521 40.2466 0.497967 39.0156C0.156683 38.3124 0.485169 37.2298 0.709136 36.3658C1.00136 35.2358 2.00601 34.3966 2.03161 33.0748C2.04654 32.3469 2.71204 31.6252 3.09599 30.9097C3.63991 29.8993 4.21583 28.9054 4.74055 27.8867C5.3058 26.7876 5.60442 25.6391 6.71999 24.738C7.47935 24.1255 7.52201 22.7172 7.97208 21.7006C8.30056 20.9603 8.79329 20.2881 9.17724 19.5664C9.96859 18.0817 10.7215 16.5764 11.5342 15.1041C11.6387 14.9165 12.0163 14.7907 12.2744 14.7783C12.8951 14.7494 13.2278 14.5102 13.4518 13.9205C14.2261 11.8791 14.9684 9.81702 15.9304 7.85808C16.2887 7.12812 17.1782 6.61054 17.897 6.09091C18.3578 5.75892 18.9486 5.59396 19.484 5.36095C20.382 4.9671 21.2544 4.49489 22.1887 4.21239C23.1059 3.93401 23.7628 3.62058 23.8994 2.55451C24.0551 1.34409 25.9108 -0.0828475 27.1394 0.00375828C27.4743 0.0285028 27.8199 0.407919 28.0886 0.688357C28.415 1.03066 28.6837 1.42863 28.9482 1.82248C29.9188 3.27003 31.6273 2.9731 33.0031 3.47005C33.4596 3.63502 34.0376 3.97113 34.1784 4.35879C34.4536 5.11763 34.8567 5.51148 35.6736 5.54653C35.7974 5.55272 35.9147 5.67025 36 5.71562C35.1617 6.47239 34.46 7.18173 33.6771 7.79003C32.4954 8.70764 32.4464 9.86033 32.7514 11.1409C32.8773 11.6687 32.9306 12.2111 33.0415 12.741C33.1226 13.1348 33.1801 13.5493 33.3593 13.9019C33.7646 14.6917 34.6647 15.4258 33.4852 16.2836C33.4148 18.1951 31.4183 19.4859 31.6828 21.5129C31.702 21.6655 31.623 21.9171 31.5057 21.9831C30.2302 22.7007 30.1278 24.0637 29.586 25.1813C29.5412 25.2741 29.4346 25.3999 29.4644 25.4576C30.0873 26.633 29.3279 27.7671 29.3642 28.9239C29.3706 29.1281 29.4367 29.3569 29.3642 29.5322C28.3339 31.9861 28.3233 34.6234 27.9564 37.1865C27.6983 38.9929 27.5447 40.7786 26.5912 42.4056C26.4441 42.6551 26.4377 43.0097 26.4441 43.3149C26.4931 45.5564 25.5375 47.4885 24.4795 49.3918C23.9889 50.2743 23.8204 51.3012 22.8222 51.9508C22.4297 52.2064 22.5598 53.1158 22.242 53.5983C21.8154 54.2499 21.1094 54.7304 20.6636 55.3737C20.0983 56.1883 19.4733 57.044 19.2323 57.9678C18.7652 59.7783 18.4644 61.6382 18.2575 63.4961C18.1466 64.4962 18.3556 65.5334 18.4474 66.55C18.5071 67.2305 18.6948 67.911 18.6692 68.5832C18.65 69.0492 18.362 69.5049 18.1957 69.9648C18.0741 69.9524 17.9504 69.94 17.8288 69.9276C18.0869 70.5731 18.345 71.2164 18.6607 72C17.4192 71.6309 16.4359 71.3381 15.0452 70.9236Z" fill="#FF1D6C"/>
<path d="M75.7373 62.6621H73.4521V69H72.5195V62.6621H70.2393V61.8906H75.7373V62.6621ZM75.9229 66.3096C75.9229 65.792 76.0238 65.3265 76.2256 64.9131C76.4307 64.4997 76.7139 64.1807 77.0752 63.9561C77.4398 63.7314 77.8548 63.6191 78.3203 63.6191C79.0397 63.6191 79.6208 63.8682 80.0635 64.3662C80.5094 64.8643 80.7324 65.5267 80.7324 66.3535V66.417C80.7324 66.9313 80.6331 67.3936 80.4346 67.8037C80.2393 68.2106 79.9577 68.528 79.5898 68.7559C79.2253 68.9837 78.8053 69.0977 78.3301 69.0977C77.6139 69.0977 77.0329 68.8486 76.5869 68.3506C76.1442 67.8525 75.9229 67.1934 75.9229 66.373V66.3096ZM76.8311 66.417C76.8311 67.0029 76.9661 67.4733 77.2363 67.8281C77.5098 68.1829 77.8743 68.3604 78.3301 68.3604C78.7891 68.3604 79.1536 68.1813 79.4238 67.8232C79.694 67.4619 79.8291 66.9574 79.8291 66.3096C79.8291 65.7301 79.6908 65.2614 79.4141 64.9033C79.1406 64.542 78.776 64.3613 78.3203 64.3613C77.8743 64.3613 77.5146 64.5387 77.2412 64.8936C76.9678 65.2484 76.8311 65.7562 76.8311 66.417ZM85.127 68.4775C84.7754 68.891 84.2594 69.0977 83.5791 69.0977C83.016 69.0977 82.5863 68.9349 82.29 68.6094C81.9971 68.2806 81.849 67.7956 81.8457 67.1543V63.7168H82.749V67.1299C82.749 67.9307 83.0745 68.3311 83.7256 68.3311C84.4157 68.3311 84.8747 68.0739 85.1025 67.5596V63.7168H86.0059V69H85.1465L85.127 68.4775ZM89.9365 64.5273C89.7998 64.5046 89.6517 64.4932 89.4922 64.4932C88.8997 64.4932 88.4977 64.7454 88.2861 65.25V69H87.3828V63.7168H88.2617L88.2764 64.3271C88.5726 63.8551 88.9925 63.6191 89.5361 63.6191C89.7119 63.6191 89.8454 63.6419 89.9365 63.6875V64.5273ZM90.459 66.3145C90.459 65.4909 90.6494 64.8366 91.0303 64.3516C91.4111 63.8633 91.9157 63.6191 92.5439 63.6191C93.1885 63.6191 93.6914 63.847 94.0527 64.3027L94.0967 63.7168H94.9219V68.873C94.9219 69.5566 94.7184 70.0954 94.3115 70.4893C93.9079 70.8831 93.3643 71.0801 92.6807 71.0801C92.2998 71.0801 91.9271 70.9987 91.5625 70.8359C91.1979 70.6732 90.9196 70.4502 90.7275 70.167L91.1963 69.625C91.5837 70.1035 92.0573 70.3428 92.6172 70.3428C93.0566 70.3428 93.3984 70.2191 93.6426 69.9717C93.89 69.7243 94.0137 69.376 94.0137 68.9268V68.4727C93.6523 68.8893 93.1592 69.0977 92.5342 69.0977C91.9157 69.0977 91.4144 68.8486 91.0303 68.3506C90.6494 67.8525 90.459 67.1738 90.459 66.3145ZM91.3672 66.417C91.3672 67.0127 91.4893 67.4814 91.7334 67.8232C91.9775 68.1618 92.3193 68.3311 92.7588 68.3311C93.3285 68.3311 93.7467 68.0723 94.0137 67.5547V65.1426C93.737 64.638 93.3219 64.3857 92.7686 64.3857C92.3291 64.3857 91.9857 64.5566 91.7383 64.8984C91.4909 65.2402 91.3672 65.7464 91.3672 66.417ZM99.5508 68.4775C99.1992 68.891 98.6833 69.0977 98.0029 69.0977C97.4398 69.0977 97.0101 68.9349 96.7139 68.6094C96.4209 68.2806 96.2728 67.7956 96.2695 67.1543V63.7168H97.1729V67.1299C97.1729 67.9307 97.4984 68.3311 98.1494 68.3311C98.8395 68.3311 99.2985 68.0739 99.5264 67.5596V63.7168H100.43V69H99.5703L99.5508 68.4775ZM102.788 69H101.885V63.7168H102.788V69ZM101.812 62.3154C101.812 62.1689 101.855 62.0452 101.943 61.9443C102.035 61.8434 102.168 61.793 102.344 61.793C102.52 61.793 102.653 61.8434 102.744 61.9443C102.835 62.0452 102.881 62.1689 102.881 62.3154C102.881 62.4619 102.835 62.584 102.744 62.6816C102.653 62.7793 102.52 62.8281 102.344 62.8281C102.168 62.8281 102.035 62.7793 101.943 62.6816C101.855 62.584 101.812 62.4619 101.812 62.3154ZM104.019 66.3145C104.019 65.5039 104.211 64.8529 104.595 64.3613C104.979 63.8665 105.482 63.6191 106.104 63.6191C106.722 63.6191 107.212 63.8307 107.573 64.2539V61.5H108.477V69H107.646L107.603 68.4336C107.241 68.8763 106.738 69.0977 106.094 69.0977C105.482 69.0977 104.982 68.847 104.595 68.3457C104.211 67.8444 104.019 67.1901 104.019 66.3828V66.3145ZM104.922 66.417C104.922 67.016 105.046 67.4847 105.293 67.8232C105.54 68.1618 105.882 68.3311 106.318 68.3311C106.891 68.3311 107.31 68.0739 107.573 67.5596V65.1328C107.303 64.6348 106.888 64.3857 106.328 64.3857C105.885 64.3857 105.54 64.5566 105.293 64.8984C105.046 65.2402 104.922 65.7464 104.922 66.417ZM112.075 69.0977C111.359 69.0977 110.776 68.8633 110.327 68.3945C109.878 67.9225 109.653 67.2926 109.653 66.5049V66.3389C109.653 65.8148 109.753 65.3477 109.951 64.9375C110.153 64.5241 110.433 64.2018 110.791 63.9707C111.152 63.7363 111.543 63.6191 111.963 63.6191C112.65 63.6191 113.184 63.8454 113.564 64.2979C113.945 64.7503 114.136 65.3981 114.136 66.2412V66.6172H110.557C110.57 67.138 110.721 67.5596 111.011 67.8818C111.304 68.2008 111.675 68.3604 112.124 68.3604C112.443 68.3604 112.713 68.2952 112.935 68.165C113.156 68.0348 113.35 67.8623 113.516 67.6475L114.067 68.0771C113.625 68.7575 112.961 69.0977 112.075 69.0977ZM111.963 64.3613C111.598 64.3613 111.292 64.4948 111.045 64.7617C110.798 65.0254 110.645 65.3965 110.586 65.875H113.232V65.8066C113.206 65.3477 113.083 64.9928 112.861 64.7422C112.64 64.4883 112.34 64.3613 111.963 64.3613Z" fill="#0D0B0C"/>
</svg>
