<svg width="24" height="24" viewBox="0 0 24 24" fill="none" xmlns="http://www.w3.org/2000/svg">
<path fill-rule="evenodd" clip-rule="evenodd" d="M4.68649 5.33726C4.68834 5.33726 4.642 5.38546 4.58361 5.44292C4.35933 5.66072 3.895 6.11393 3.89032 7.06207C3.88295 8.38834 4.75507 10.8509 8.95443 15.0494C13.1343 19.2274 15.5931 20.1098 16.9222 20.1098H16.9416C17.8898 20.1051 18.342 19.6399 18.5608 19.4165C18.6275 19.3479 18.6813 19.2979 18.7192 19.2664C19.6423 18.3377 20.115 17.6463 20.1104 17.2033C20.1039 16.751 19.5413 16.2162 18.7637 15.4766C18.5163 15.2412 18.2475 14.9854 17.9639 14.7018C17.2289 13.9687 16.8647 14.0938 16.064 14.3756C14.9564 14.7639 13.4365 15.2922 11.075 12.9297C8.70975 10.5664 9.23896 9.04823 9.62636 7.94069C9.90626 7.13992 10.0342 6.77475 9.29827 6.03886C9.01004 5.75155 8.75146 5.47907 8.51327 5.22883C7.77831 4.45586 7.24818 3.89699 6.79868 3.8905H6.79126C6.34732 3.8905 5.65778 4.36503 4.68186 5.34097C4.68464 5.33819 4.68649 5.33726 4.68649 5.33726ZM16.9231 21.5C14.6135 21.5 11.6023 19.6612 7.97201 16.0327C4.32782 12.3894 2.48625 9.36891 2.50008 7.05465C2.5085 5.52541 3.31018 4.74225 3.6114 4.44845C3.62715 4.42898 3.68091 4.37615 3.69944 4.35762C5.02848 3.02764 5.9247 2.49009 6.81629 2.50014C7.85153 2.51418 8.58834 3.289 9.52071 4.2705C9.75148 4.51332 10.0017 4.77747 10.2807 5.05551C11.6338 6.40866 11.2483 7.5125 10.9387 8.39853C10.6014 9.3652 10.3094 10.1993 12.0574 11.9473C13.8072 13.6953 14.6413 13.4033 15.6043 13.0632C16.4912 12.7536 17.5923 12.3662 18.9472 13.7194C19.2216 13.9937 19.482 14.2412 19.7221 14.4701C20.7082 15.4071 21.4867 16.1476 21.4998 17.1857C21.5108 18.0708 20.9732 18.9726 19.6461 20.3007L19.0585 19.9022L19.5552 20.3878C19.2614 20.689 18.4792 21.4917 16.9491 21.5H16.9231Z" fill="#FF1D6C"/>
</svg>
